<svg width="341" height="288" xmlns="http://www.w3.org/2000/svg" xmlns:xlink="http://www.w3.org/1999/xlink" overflow="hidden"><defs><clipPath id="clip0"><rect x="464" y="216" width="341" height="288"/></clipPath><clipPath id="clip1"><rect x="535" y="242" width="226" height="15"/></clipPath></defs><g clip-path="url(#clip0)" transform="translate(-464 -216)"><g><path d="M544.5 418.5 776.5 418.5M544.5 408.5 776.5 408.5M544.5 398.5 776.5 398.5M544.5 388.5 776.5 388.5M544.5 369.5 776.5 369.5M544.5 359.5 776.5 359.5M544.5 349.5 776.5 349.5M544.5 339.5 776.5 339.5M544.5 320.5 776.5 320.5M544.5 310.5 776.5 310.5M544.5 300.5 776.5 300.5M544.5 291.5 776.5 291.5M544.5 271.5 776.5 271.5M544.5 261.5 776.5 261.5M544.5 251.5 776.5 251.5M544.5 242.5 776.5 242.5" stroke="#F2F2F2" stroke-linejoin="round" stroke-miterlimit="10" fill="none"/></g><g><path d="M544.5 427.5 776.5 427.5M544.5 378.5 776.5 378.5M544.5 330.5 776.5 330.5M544.5 281.5 776.5 281.5M544.5 232.5 776.5 232.5" stroke="#000000" stroke-width="0.666667" stroke-linejoin="round" stroke-miterlimit="10" fill="none"/></g><g><path d="M567.5 232.5 567.5 427.5M581.5 232.5 581.5 427.5M591.5 232.5 591.5 427.5M598.5 232.5 598.5 427.5M604.5 232.5 604.5 427.5M609.5 232.5 609.5 427.5M614.5 232.5 614.5 427.5M618.5 232.5 618.5 427.5M645.5 232.5 645.5 427.5M658.5 232.5 658.5 427.5M668.5 232.5 668.5 427.5M675.5 232.5 675.5 427.5M681.5 232.5 681.5 427.5M687.5 232.5 687.5 427.5M691.5 232.5 691.5 427.5M695.5 232.5 695.5 427.5M722.5 232.5 722.5 427.5M735.5 232.5 735.5 427.5M745.5 232.5 745.5 427.5M753.5 232.5 753.5 427.5M759.5 232.5 759.5 427.5M764.5 232.5 764.5 427.5M768.5 232.5 768.5 427.5M772.5 232.5 772.5 427.5" stroke="#F2F2F2" stroke-linejoin="round" stroke-miterlimit="10" fill="none"/></g><g><path d="M544.5 232.5 544.5 427.5M621.5 232.5 621.5 427.5M699.5 232.5 699.5 427.5M776.5 232.5 776.5 427.5" stroke="#D9D9D9" stroke-linejoin="round" stroke-miterlimit="10" fill="none"/></g><g><rect x="544.5" y="232.5" width="232" height="195" stroke="#000000" stroke-linejoin="round" stroke-miterlimit="10" fill="none"/></g><g><path d="M578.51 274.133C578.51 275.606 577.316 276.8 575.843 276.8 574.37 276.8 573.176 275.606 573.176 274.133 573.176 272.66 574.37 271.467 575.843 271.467 577.316 271.467 578.51 272.66 578.51 274.133Z" stroke="#9B57D3" stroke-linejoin="round" stroke-miterlimit="10" fill="#9B57D3"/><path d="M723.01 302.8C723.01 304.273 721.816 305.467 720.343 305.467 718.87 305.467 717.676 304.273 717.676 302.8 717.676 301.327 718.87 300.133 720.343 300.133 721.816 300.133 723.01 301.327 723.01 302.8Z" stroke="#9B57D3" stroke-linejoin="round" stroke-miterlimit="10" fill="#9B57D3"/><path d="M746.343 338.8C746.343 340.273 745.149 341.467 743.676 341.467 742.204 341.467 741.01 340.273 741.01 338.8 741.01 337.327 742.204 336.133 743.676 336.133 745.149 336.133 746.343 337.327 746.343 338.8Z" stroke="#9B57D3" stroke-linejoin="round" stroke-miterlimit="10" fill="#9B57D3"/><path d="M702.01 333.133C702.01 334.606 700.816 335.8 699.343 335.8 697.87 335.8 696.676 334.606 696.676 333.133 696.676 331.66 697.87 330.467 699.343 330.467 700.816 330.467 702.01 331.66 702.01 333.133Z" stroke="#9B57D3" stroke-linejoin="round" stroke-miterlimit="10" fill="#9B57D3"/><path d="M708.01 348.133C708.01 349.606 706.816 350.8 705.343 350.8 703.87 350.8 702.676 349.606 702.676 348.133 702.676 346.66 703.87 345.467 705.343 345.467 706.816 345.467 708.01 346.66 708.01 348.133Z" stroke="#9B57D3" stroke-linejoin="round" stroke-miterlimit="10" fill="#9B57D3"/><path d="M698.676 346.467C698.676 347.939 697.482 349.133 696.01 349.133 694.537 349.133 693.343 347.939 693.343 346.467 693.343 344.994 694.537 343.8 696.01 343.8 697.482 343.8 698.676 344.994 698.676 346.467Z" stroke="#9B57D3" stroke-linejoin="round" stroke-miterlimit="10" fill="#9B57D3"/><path d="M695.01 390.133C695.01 391.606 693.816 392.8 692.343 392.8 690.87 392.8 689.676 391.606 689.676 390.133 689.676 388.66 690.87 387.467 692.343 387.467 693.816 387.467 695.01 388.66 695.01 390.133Z" stroke="#9B57D3" stroke-linejoin="round" stroke-miterlimit="10" fill="#9B57D3"/><path d="M632.01 388.467C632.01 389.939 630.816 391.133 629.343 391.133 627.87 391.133 626.676 389.939 626.676 388.467 626.676 386.994 627.87 385.8 629.343 385.8 630.816 385.8 632.01 386.994 632.01 388.467Z" stroke="#9B57D3" stroke-linejoin="round" stroke-miterlimit="10" fill="#9B57D3"/></g><g><path d="M629.5 255C629.5 256.381 628.157 257.5 626.5 257.5 624.843 257.5 623.5 256.381 623.5 255 623.5 253.619 624.843 252.5 626.5 252.5 628.157 252.5 629.5 253.619 629.5 255Z" stroke="#FF0000" stroke-linejoin="round" stroke-miterlimit="10" fill="#FF0000"/></g><g><path d="M570.5 269C570.5 270.381 569.157 271.5 567.5 271.5 565.843 271.5 564.5 270.381 564.5 269 564.5 267.619 565.843 266.5 567.5 266.5 569.157 266.5 570.5 267.619 570.5 269Z" stroke="#FF0000" stroke-linejoin="round" stroke-miterlimit="10" fill="#FF0000"/></g><g><path d="M575.5 274.5 587.5 283.5 593.5 283.5" stroke="#000000" stroke-linejoin="round" stroke-miterlimit="10" fill="none"/></g><g><path d="M567.5 269.5 576.5 263.5 582.5 263.5" stroke="#000000" stroke-linejoin="round" stroke-miterlimit="10" fill="none"/></g><g><text font-family="Calibri,Calibri_MSFontService,sans-serif" font-weight="400" font-size="13" transform="translate(606.99 280)">DMVFN</text></g><g><g><text font-family="Calibri,Calibri_MSFontService,sans-serif" font-weight="400" font-size="13" transform="translate(594.47 293)">(CVPR 2023)</text></g></g><g><text font-family="Calibri,Calibri_MSFontService,sans-serif" font-weight="400" font-size="13" transform="translate(724.594 308)">CorrWise</text></g><g><text font-family="Calibri,Calibri_MSFontService,sans-serif" font-weight="400" font-size="13" transform="translate(750.384 342)">FVS</text></g><g><text font-family="Calibri,Calibri_MSFontService,sans-serif" font-weight="400" font-size="13" transform="translate(703.546 329)">MCNET</text></g><g><text font-family="Calibri,Calibri_MSFontService,sans-serif" font-weight="400" font-size="13" transform="translate(709.588 360)">Vid2vid</text></g><g><text font-family="Calibri,Calibri_MSFontService,sans-serif" font-weight="400" font-size="13" transform="translate(648.143 350)">Seg2vid</text></g><g><text font-family="Calibri,Calibri_MSFontService,sans-serif" font-weight="400" font-size="13" transform="translate(697.725 395)">DVF</text></g><g><text font-family="Calibri,Calibri_MSFontService,sans-serif" font-weight="400" font-size="13" transform="translate(633.357 393)">PredNet</text></g><g><g clip-path="url(#clip1)"><text font-family="Calibri,Calibri_MSFontService,sans-serif" font-weight="700" font-size="13" transform="translate(632.254 254)">IFRVP</text></g></g><g><g><text font-family="Calibri,Calibri_MSFontService,sans-serif" font-weight="700" font-size="13" transform="translate(586.403 268)">IFRVP</text></g></g><g><g><text font-family="Calibri,Calibri_MSFontService,sans-serif" font-weight="700" font-size="13" transform="translate(618.563 268)">-</text></g></g><g><g><text font-family="Calibri,Calibri_MSFontService,sans-serif" font-weight="700" font-size="13" transform="translate(622.643 268)">Fast</text></g></g><g><text font-family="Calibri,Calibri_MSFontService,sans-serif" font-weight="700" font-size="21" transform="matrix(6.12323e-17 -1 1 6.12323e-17 508.5 443)">MS</text></g><g><text font-family="Calibri,Calibri_MSFontService,sans-serif" font-weight="700" font-size="21" transform="matrix(6.12323e-17 -1 1 6.12323e-17 508.5 414)">-</text></g><g><text font-family="Calibri,Calibri_MSFontService,sans-serif" font-weight="700" font-size="21" transform="matrix(6.12323e-17 -1 1 6.12323e-17 508.5 408)">SSIM on</text></g><g><text font-family="Calibri,Calibri_MSFontService,sans-serif" font-weight="700" font-size="21" transform="matrix(6.12323e-17 -1 1 6.12323e-17 508.5 331)">CityScapes</text></g><g><text font-family="Calibri,Calibri_MSFontService,sans-serif" font-weight="700" font-size="21" transform="translate(627.387 470)">GFLOPs</text></g><text font-family="Calibri,Calibri_MSFontService,sans-serif" font-weight="400" font-size="15" transform="translate(526.538 448)">5</text><text font-family="Calibri,Calibri_MSFontService,sans-serif" font-weight="400" font-size="15" transform="translate(534.038 448)">×</text><text font-family="Calibri,Calibri_MSFontService,sans-serif" font-weight="400" font-size="15" transform="translate(541.371 448)">10</text><text font-family="Calibri,Calibri_MSFontService,sans-serif" font-weight="400" font-size="10" transform="translate(556.371 444)">0</text><text font-family="Calibri,Calibri_MSFontService,sans-serif" font-weight="400" font-size="15" transform="translate(603.178 448)">5</text><text font-family="Calibri,Calibri_MSFontService,sans-serif" font-weight="400" font-size="15" transform="translate(610.678 448)">×</text><text font-family="Calibri,Calibri_MSFontService,sans-serif" font-weight="400" font-size="15" transform="translate(618.012 448)">10</text><text font-family="Calibri,Calibri_MSFontService,sans-serif" font-weight="400" font-size="10" transform="translate(633.012 444)">1</text><text font-family="Calibri,Calibri_MSFontService,sans-serif" font-weight="400" font-size="15" transform="translate(681.094 448)">5</text><text font-family="Calibri,Calibri_MSFontService,sans-serif" font-weight="400" font-size="15" transform="translate(688.594 448)">×</text><text font-family="Calibri,Calibri_MSFontService,sans-serif" font-weight="400" font-size="15" transform="translate(695.928 448)">10</text><text font-family="Calibri,Calibri_MSFontService,sans-serif" font-weight="400" font-size="10" transform="translate(710.928 444)">2</text><text font-family="Calibri,Calibri_MSFontService,sans-serif" font-weight="400" font-size="15" transform="translate(759.395 448)">5</text><text font-family="Calibri,Calibri_MSFontService,sans-serif" font-weight="400" font-size="15" transform="translate(766.895 448)">×</text><text font-family="Calibri,Calibri_MSFontService,sans-serif" font-weight="400" font-size="15" transform="translate(774.229 448)">10</text><text font-family="Calibri,Calibri_MSFontService,sans-serif" font-weight="400" font-size="10" transform="translate(789.229 444)">3</text><text font-family="Calibri,Calibri_MSFontService,sans-serif" font-weight="400" font-size="15" transform="translate(513.865 433)">0.80</text><text font-family="Calibri,Calibri_MSFontService,sans-serif" font-weight="400" font-size="15" transform="translate(513.865 384)">0.85</text><text font-family="Calibri,Calibri_MSFontService,sans-serif" font-weight="400" font-size="15" transform="translate(513.865 335)">0.90</text><text font-family="Calibri,Calibri_MSFontService,sans-serif" font-weight="400" font-size="15" transform="translate(513.865 286)">0.95</text><text font-family="Calibri,Calibri_MSFontService,sans-serif" font-weight="400" font-size="15" transform="translate(513.865 237)">1.00</text></g></svg>